# xmcd
#
# Track frame offsets:
#	150
#	22581
#	44396
#	67307
#	79274
#	98548
#	116507
#	131511
#	145427
#	162154
#	182099
#	194762
#
# Disc length: 2864 seconds
#
# Revision: 1
# Processed by: cddbd v1.5.2PL0 Copyright (c) Steve Scherf et al.
# Submitted via: audiograbber 1.83.01
#
DISCID=a50b2e0c
DTITLE=Joseph Parsons - Heavens Above
DYEAR=2008
DGENRE=
TTITLE0=Heavens Above
TTITLE1=Shades Of Gray
TTITLE2=Sitting On A Top The World
TTITLE3=Anyone
TTITLE4=Children In The Sun
TTITLE5=Skipping Stone
TTITLE6=Sky Boys
TTITLE7=Tell Me Hello
TTITLE8=Dume Room
TTITLE9=Falling
TTITLE10=Sympathy
TTITLE11=I Saw You
EXTD=
EXTT0=
EXTT1=
EXTT2=
EXTT3=
EXTT4=
EXTT5=
EXTT6=
EXTT7=
EXTT8=
EXTT9=
EXTT10=
EXTT11=
PLAYORDER=
